<svg xmlns="http://www.w3.org/2000/svg" viewBox="0 0 110 30" width="100" height="30">
  <path fill="#0769ad" d="M26.341 0c-2.371 6.273-4.29 9.185-7.703 9.855-4.19.844-8.807-1.354-10.568-5.528 2.1 1.881 4.4 2.3 5.504 1.774 1.784-.843 3.387-3.236 4.343-6.101-1.343 2.125-3.202 3.286-5.298 2.896-2.448-.455-4.05-2.87-4.444-5.535-.29-2.072.4-3.962 1.656-4.902C12.183-.402 14.017-.13 14.85 1.8c2.017 4.03 2.93 6.68 3.02 8.05.083 1.225.6 1.92 1.568 1.92 1.47 0 2.99-2.306 5.904-6.958zM32.9 0c-.12 3.25-1.097 5.743-3.3 7.353-2.504 1.84-5.72 1.928-7.604.2 1.097 1.193 2.503 1.624 4.04 1.252 1.33-.328 2.514-1.67 3.02-4.18 1.096-5.55-.96-8.102-2.306-8.022 1.56.5 2.647 2.227 2.65 4.647zm0 0"/>
</svg>
